<svg width="33" height="27" viewBox="0 0 33 27" fill="none" xmlns="http://www.w3.org/2000/svg">
<path d="M9.99998 24.5C9.46248 24.0233 8.85498 23.5275 8.21248 23H8.20415C5.94165 21.15 3.37748 19.0566 2.24498 16.5483C1.87291 15.7497 1.67573 14.8809 1.66664 14C1.66415 12.7912 2.14895 11.6324 3.01149 10.7856C3.87402 9.93875 5.04147 9.47529 6.24998 9.49996C7.23384 9.50151 8.19651 9.78586 9.02331 10.3191C9.38662 10.5549 9.71533 10.8402 9.99998 11.1666C10.2862 10.8415 10.615 10.5564 10.9775 10.3191C11.8039 9.78576 12.7664 9.50139 13.75 9.49996C14.9585 9.47529 16.1259 9.93875 16.9885 10.7856C17.851 11.6324 18.3358 12.7912 18.3333 14C18.3248 14.8823 18.1276 15.7526 17.755 16.5525C16.6225 19.0608 14.0591 21.1533 11.7966 23L11.7883 23.0066C11.145 23.5308 10.5383 24.0266 10.0008 24.5066L9.99998 24.5ZM6.24998 11.1666C5.47374 11.1569 4.72504 11.454 4.16665 11.9933C3.62863 12.5218 3.32794 13.2458 3.33324 14C3.34275 14.642 3.48817 15.2748 3.75998 15.8566C4.29457 16.9389 5.0159 17.9183 5.89081 18.75C6.71665 19.5833 7.66665 20.39 8.48831 21.0683C8.71581 21.2558 8.94748 21.445 9.17915 21.6341L9.32498 21.7533C9.54748 21.935 9.77748 22.1233 9.99998 22.3083L10.0108 22.2983L10.0158 22.2941H10.0208L10.0283 22.2883H10.0325H10.0366L10.0516 22.2758L10.0858 22.2483L10.0916 22.2433L10.1008 22.2366H10.1058L10.1133 22.23L10.6666 21.7758L10.8116 21.6566C11.0458 21.4658 11.2775 21.2766 11.505 21.0891C12.3266 20.4108 13.2775 19.605 14.1033 18.7675C14.9783 17.9363 15.6997 16.9571 16.2341 15.875C16.5109 15.2881 16.6584 14.6487 16.6667 14C16.6701 13.2482 16.3696 12.5269 15.8333 12C15.276 11.4582 14.5272 11.1587 13.75 11.1666C12.8016 11.1586 11.8949 11.5561 11.2583 12.2591L9.99998 13.7091L8.74165 12.2591C8.10503 11.5561 7.19838 11.1586 6.24998 11.1666Z" fill="#303030"/>
<circle cx="23.5" cy="9.5" r="9.5" fill="#E46942"/>
<path d="M17.5895 13V11.892L20.1783 9.49503C20.3984 9.28196 20.5831 9.0902 20.7322 8.91974C20.8838 8.74929 20.9986 8.58239 21.0767 8.41903C21.1548 8.25331 21.1939 8.07457 21.1939 7.88281C21.1939 7.66974 21.1454 7.48627 21.0483 7.33239C20.9512 7.17614 20.8187 7.05658 20.6506 6.97372C20.4825 6.88849 20.2919 6.84588 20.0788 6.84588C19.8563 6.84588 19.6622 6.89086 19.4964 6.98082C19.3307 7.07079 19.2029 7.19981 19.1129 7.3679C19.023 7.53598 18.978 7.73603 18.978 7.96804H17.5185C17.5185 7.49219 17.6262 7.07907 17.8416 6.72869C18.0571 6.37831 18.3589 6.10724 18.7472 5.91548C19.1354 5.72372 19.5829 5.62784 20.0895 5.62784C20.6103 5.62784 21.0637 5.72017 21.4496 5.90483C21.8378 6.08712 22.1397 6.34044 22.3551 6.66477C22.5705 6.98911 22.6783 7.3608 22.6783 7.77983C22.6783 8.05445 22.6238 8.32552 22.5149 8.59304C22.4084 8.86056 22.2178 9.15767 21.9432 9.48438C21.6686 9.80871 21.2815 10.1982 20.782 10.6527L19.7202 11.6932V11.7429H22.7741V13H17.5895ZM26.5765 13.0994C26.0462 13.0994 25.5739 13.0083 25.1596 12.826C24.7477 12.6413 24.4222 12.388 24.1831 12.0661C23.9463 11.7417 23.8244 11.3677 23.8173 10.9439H25.3656C25.3751 11.1214 25.4331 11.2777 25.5396 11.4126C25.6485 11.5452 25.7929 11.6482 25.9728 11.7216C26.1528 11.795 26.3552 11.8317 26.5801 11.8317C26.8145 11.8317 27.0216 11.7902 27.2015 11.7074C27.3815 11.6245 27.5223 11.5097 27.6241 11.3629C27.7259 11.2161 27.7768 11.0469 27.7768 10.8551C27.7768 10.661 27.7224 10.4893 27.6135 10.3402C27.5069 10.1887 27.353 10.0703 27.1518 9.98509C26.9529 9.89986 26.7162 9.85724 26.4416 9.85724H25.7633V8.72798H26.4416C26.6736 8.72798 26.8784 8.68774 27.0559 8.60724C27.2359 8.52675 27.3755 8.41548 27.475 8.27344C27.5744 8.12902 27.6241 7.96094 27.6241 7.76918C27.6241 7.58688 27.5803 7.42708 27.4927 7.28977C27.4075 7.15009 27.2868 7.04119 27.1305 6.96307C26.9766 6.88494 26.7967 6.84588 26.5907 6.84588C26.3824 6.84588 26.1918 6.88376 26.019 6.95952C25.8462 7.03291 25.7077 7.13826 25.6035 7.27557C25.4993 7.41288 25.4437 7.57386 25.4366 7.75852H23.9629C23.97 7.33949 24.0895 6.97017 24.3216 6.65057C24.5536 6.33097 24.8661 6.0812 25.2591 5.90128C25.6544 5.71899 26.1007 5.62784 26.5978 5.62784C27.0997 5.62784 27.5389 5.71899 27.9153 5.90128C28.2917 6.08357 28.5841 6.32978 28.7924 6.63991C29.0031 6.94768 29.1073 7.29332 29.1049 7.67685C29.1073 8.08404 28.9806 8.42377 28.725 8.69602C28.4717 8.96828 28.1414 9.1411 27.7342 9.21449V9.27131C28.2692 9.33996 28.6764 9.5258 28.9558 9.82884C29.2375 10.1295 29.3772 10.5059 29.3748 10.9581C29.3772 11.3724 29.2576 11.7405 29.0162 12.0625C28.777 12.3845 28.4468 12.6378 28.0254 12.8224C27.604 13.0071 27.121 13.0994 26.5765 13.0994Z" fill="white"/>
</svg>
